# xmcd CD database file
#
# Track frame offsets:
#	150
#	20740
#	52482
#	57330
#	69147
#	78215
#	101825
#	114220
#	127035
#	140000
#	154105
#	162257
#	176152
#	195617
#	214435
#
# Disc length: 3735 seconds
#
# Revision: 0
# Processed by: cddbd v1.5.1PL0 Copyright (c) Steve Scherf et al.
# Submitted via: CDex 1.51
#
DISCID=df0e950f
DTITLE=Roscoe Mitchell - Sound Songs [CD2]
DYEAR=1996
DGENRE=Jazz
TTITLE0=The Play, Act I
TTITLE1=The Play, Act II
TTITLE2=The Play, Finale
TTITLE3=The Garden
TTITLE4=The Night
TTITLE5=On The Country Road
TTITLE6=Side One
TTITLE7=The Other Side
TTITLE8=The Other Side, Part 2
TTITLE9=Side Two
TTITLE10=First Sketches Of Leola
TTITLE11=Appear And Disappear
TTITLE12=The Dream Machine
TTITLE13=For Madeline
TTITLE14=Closer
EXTD=YEAR: 1996
EXTT0=
EXTT1=
EXTT2=
EXTT3=
EXTT4=
EXTT5=
EXTT6=
EXTT7=
EXTT8=
EXTT9=
EXTT10=
EXTT11=
EXTT12=
EXTT13=
EXTT14=
PLAYORDER=
